<svg
 xmlns="http://www.w3.org/2000/svg"
 xmlns:xlink="http://www.w3.org/1999/xlink"
 width="193px" height="53px">
<path fill-rule="evenodd"  fill="rgb(16, 16, 16)"
 d="M192.457,51.900 C192.350,51.900 192.235,51.867 192.095,51.661 L190.606,49.486 L189.742,50.299 L189.742,51.448 C189.742,51.826 189.479,51.900 189.273,51.900 C188.969,51.900 188.780,51.768 188.780,51.448 L188.780,45.422 C188.780,44.978 189.125,44.962 189.257,44.962 C189.537,44.962 189.742,45.085 189.742,45.422 L189.742,48.977 L192.004,46.850 C192.161,46.702 192.268,46.702 192.317,46.702 C192.638,46.702 192.835,47.056 192.835,47.220 C192.835,47.334 192.778,47.450 192.695,47.523 L191.322,48.813 L192.909,51.161 C192.959,51.226 193.000,51.317 193.000,51.415 C193.000,51.621 192.786,51.900 192.457,51.900 ZM176.882,37.824 C175.571,37.824 175.524,36.634 175.524,36.468 C175.524,35.563 176.120,35.421 176.882,35.230 C181.079,34.255 185.609,32.660 188.374,27.401 C189.113,25.998 189.900,23.880 189.900,23.190 C189.900,22.690 189.519,22.666 188.923,22.666 L181.508,22.666 C180.340,24.308 177.145,27.806 175.619,27.806 C174.928,27.806 174.308,27.116 174.308,26.450 C174.308,25.879 174.475,25.760 175.452,25.069 C178.170,23.142 180.149,20.168 180.626,19.168 C181.627,17.074 181.746,16.836 182.605,16.836 C183.129,16.836 184.035,17.098 184.035,17.907 C184.035,18.478 183.582,19.406 183.129,20.215 L190.615,20.215 C192.356,20.215 192.904,21.096 192.904,22.214 C192.904,23.023 192.046,28.163 188.136,32.280 C183.654,37.015 177.192,37.824 176.882,37.824 ZM176.455,46.842 C176.455,47.811 175.805,48.098 175.501,48.238 C175.781,48.336 176.727,48.648 176.727,49.855 C176.727,50.553 176.332,51.727 174.637,51.727 L172.548,51.727 C171.750,51.727 171.429,51.448 171.429,50.619 L171.429,46.251 C171.429,45.413 171.766,45.142 172.548,45.142 L174.522,45.142 C175.871,45.142 176.455,45.980 176.455,46.842 ZM172.441,50.463 C172.441,50.709 172.564,50.849 172.836,50.849 L174.473,50.849 C175.040,50.849 175.698,50.586 175.698,49.798 C175.698,49.264 175.386,48.772 174.448,48.772 L172.441,48.772 L172.441,50.463 ZM172.836,46.021 C172.556,46.021 172.441,46.161 172.441,46.407 L172.441,47.918 L174.382,47.918 C175.188,47.918 175.427,47.409 175.427,46.957 C175.427,46.571 175.254,46.021 174.382,46.021 L172.836,46.021 ZM166.715,46.136 C166.394,46.136 166.131,45.873 166.131,45.553 C166.131,45.216 166.402,44.962 166.715,44.962 C167.036,44.954 167.307,45.224 167.307,45.553 C167.307,45.873 167.044,46.136 166.715,46.136 ZM151.896,36.373 C150.370,36.753 148.772,37.015 148.176,37.015 C146.746,37.015 146.651,35.849 146.651,35.540 C146.651,34.493 147.270,34.302 148.224,34.183 C155.854,33.303 160.360,30.305 163.268,21.786 C163.626,20.763 163.769,20.358 164.556,20.358 C164.746,20.358 164.937,20.382 165.104,20.430 C165.557,20.572 166.129,20.882 166.129,21.643 C166.129,22.666 164.079,27.759 161.599,30.662 C158.571,34.231 154.995,35.611 151.896,36.373 ZM159.390,5.671 C159.423,5.726 159.958,6.608 160.503,7.294 C160.569,7.381 160.667,7.501 160.667,7.708 C160.667,8.078 160.351,8.339 160.045,8.339 C159.969,8.339 159.860,8.318 159.652,8.230 C159.478,8.165 158.114,7.620 156.412,7.620 C155.266,7.620 154.306,7.969 154.306,8.753 C154.306,9.777 155.954,9.896 157.034,9.896 C157.601,9.896 158.507,9.864 159.707,9.570 C159.903,9.526 160.394,9.396 160.492,9.396 C160.994,9.396 161.005,9.907 161.005,9.972 C161.005,10.397 160.700,10.506 160.503,10.572 C160.078,10.713 158.779,11.007 157.121,11.007 C156.150,11.007 155.168,10.952 154.273,10.582 C153.619,10.310 153.052,9.689 153.052,8.840 C153.052,8.089 153.444,7.599 153.903,7.283 C154.513,6.858 155.528,6.695 156.423,6.695 C157.285,6.695 158.016,6.793 158.856,7.021 C158.692,6.826 158.463,6.543 158.027,5.748 C156.717,5.802 155.626,5.845 154.306,5.845 C154.033,5.845 152.964,5.845 152.757,5.780 C152.626,5.748 152.462,5.595 152.462,5.301 C152.462,4.800 152.833,4.778 153.019,4.778 C153.335,4.778 154.688,4.822 154.972,4.822 C155.539,4.822 155.746,4.811 157.525,4.746 C157.328,4.310 157.208,3.994 157.099,3.690 C155.135,3.744 154.972,3.755 154.295,3.755 C153.913,3.755 153.324,3.755 153.161,3.700 C153.019,3.657 152.866,3.504 152.866,3.210 C152.866,2.688 153.259,2.688 153.499,2.688 C153.750,2.688 154.863,2.699 155.092,2.699 C155.474,2.699 155.605,2.699 156.772,2.655 C156.641,2.198 156.597,2.034 156.597,1.871 C156.597,1.338 157.219,1.327 157.285,1.327 C157.481,1.327 157.677,1.381 157.787,1.631 C157.819,1.729 157.972,2.285 158.059,2.611 C158.779,2.568 159.238,2.535 159.816,2.459 C159.980,2.437 160.416,2.372 160.547,2.372 C160.667,2.372 161.092,2.372 161.092,2.916 C161.092,3.341 160.732,3.417 160.460,3.461 C160.176,3.504 159.423,3.570 158.387,3.635 C158.561,4.081 158.627,4.245 158.845,4.680 C159.500,4.637 160.329,4.571 160.754,4.506 C161.289,4.430 161.300,4.419 161.409,4.419 C161.692,4.419 161.878,4.615 161.878,4.942 C161.878,5.225 161.725,5.410 161.365,5.475 C160.874,5.562 159.587,5.660 159.390,5.671 ZM155.758,23.618 C155.758,24.284 154.971,25.046 154.399,25.046 C153.875,25.046 153.660,24.903 151.300,23.285 C150.227,22.547 148.582,21.691 147.199,20.953 C146.722,20.691 146.198,20.382 146.198,19.715 C146.198,18.883 146.937,18.407 147.366,18.312 C147.890,18.216 148.415,18.407 150.728,19.715 C151.967,20.430 154.804,22.119 155.329,22.666 C155.663,22.999 155.758,23.309 155.758,23.618 ZM149.047,2.742 C148.949,2.742 148.829,2.644 148.774,2.546 C148.709,2.394 148.600,2.143 148.523,2.002 C148.480,1.915 148.283,1.566 148.240,1.490 C148.196,1.403 148.196,1.316 148.196,1.305 C148.196,1.043 148.491,1.000 148.578,1.000 C148.731,1.000 148.872,1.120 149.025,1.414 C149.112,1.588 149.440,2.209 149.440,2.416 C149.440,2.633 149.243,2.742 149.047,2.742 ZM147.858,2.829 C147.727,2.829 147.629,2.742 147.563,2.622 C147.530,2.546 147.356,2.187 147.312,2.111 C147.039,1.664 146.996,1.588 146.996,1.446 C146.996,1.196 147.269,1.130 147.389,1.130 C147.509,1.130 147.607,1.152 147.901,1.675 C148.032,1.904 148.240,2.306 148.240,2.514 C148.240,2.764 147.967,2.829 147.858,2.829 ZM148.436,2.949 C148.992,2.949 148.992,3.482 148.992,3.548 C148.992,3.820 148.883,3.962 148.611,4.038 C148.218,4.147 147.847,4.168 146.090,4.289 C146.494,5.062 147.029,5.835 147.498,6.335 C147.956,6.815 148.065,6.956 148.065,7.185 C148.065,7.501 147.781,7.762 147.432,7.762 C147.280,7.762 147.236,7.740 146.701,7.501 C146.538,7.424 145.927,7.196 145.381,7.054 C144.770,6.891 144.170,6.826 143.635,6.826 C141.955,6.826 141.246,7.675 141.246,8.437 C141.246,9.798 143.275,9.842 144.246,9.842 C144.836,9.842 145.807,9.787 146.647,9.624 C147.421,9.472 147.574,9.450 147.716,9.450 C148.130,9.450 148.240,9.798 148.240,10.016 C148.240,10.277 148.130,10.462 147.792,10.572 C147.105,10.800 145.479,10.985 144.366,10.985 C143.286,10.985 142.173,10.898 141.213,10.386 C140.428,9.972 140.035,9.199 140.035,8.383 C140.035,7.000 141.104,5.835 143.461,5.835 C144.628,5.835 145.512,6.107 146.014,6.259 C145.523,5.584 145.174,5.072 144.825,4.354 C143.232,4.408 142.741,4.430 140.886,4.430 C140.090,4.430 139.708,4.430 139.708,3.842 C139.708,3.265 140.144,3.265 140.330,3.265 C140.624,3.265 141.944,3.287 142.217,3.287 C142.883,3.287 143.461,3.276 144.355,3.243 C144.148,2.622 144.007,2.176 144.007,1.904 C144.007,1.457 144.465,1.392 144.661,1.392 C145.010,1.392 145.174,1.588 145.261,1.969 C145.468,2.829 145.490,2.905 145.599,3.178 C146.625,3.123 146.767,3.102 148.109,2.971 C148.174,2.960 148.305,2.949 148.436,2.949 ZM138.685,46.136 C138.365,46.136 138.101,45.873 138.101,45.553 C138.101,45.216 138.373,44.962 138.685,44.962 C139.006,44.954 139.278,45.224 139.278,45.553 C139.278,45.873 139.014,46.136 138.685,46.136 ZM138.186,19.763 C137.662,19.763 137.566,19.478 137.089,18.121 C137.042,17.955 136.684,17.193 136.636,17.051 C136.589,16.932 136.565,16.812 136.565,16.670 C136.565,16.170 137.089,16.004 137.376,16.004 C137.829,16.004 137.948,16.241 138.305,17.027 C138.544,17.526 138.997,18.645 138.997,19.026 C138.997,19.644 138.401,19.763 138.186,19.763 ZM133.238,8.688 C132.659,8.688 131.939,8.590 131.939,8.002 C131.939,7.719 132.081,7.457 132.485,7.457 C132.517,7.457 132.550,7.457 132.812,7.490 C133.052,7.522 133.216,7.522 133.281,7.522 C133.576,7.522 134.089,7.479 134.492,7.141 C134.885,6.815 135.060,6.216 135.060,5.704 C135.060,5.257 134.972,4.833 134.710,4.539 C134.427,4.223 133.958,4.092 133.597,4.092 C133.390,4.092 133.161,4.125 133.041,4.136 C133.139,4.430 133.347,5.083 133.347,5.334 C133.347,5.693 133.063,5.889 132.703,5.889 C132.441,5.889 132.310,5.813 132.223,5.595 C132.212,5.573 131.885,4.539 131.852,4.408 C131.416,4.539 131.077,4.637 129.932,5.072 C130.554,7.588 131.154,10.027 131.154,10.528 C131.154,11.072 130.685,11.116 130.466,11.116 C129.953,11.116 129.888,10.746 129.834,10.397 C129.604,8.938 129.528,8.600 128.786,5.530 C128.612,5.606 127.935,5.911 127.684,6.020 C127.488,6.107 127.335,6.172 127.128,6.172 C126.746,6.172 126.593,5.780 126.593,5.530 C126.593,5.323 126.659,5.170 126.953,5.029 C127.390,4.822 128.393,4.452 128.513,4.408 C128.382,3.940 128.306,3.668 128.066,2.884 C128.001,2.655 127.957,2.503 127.957,2.350 C127.957,1.860 128.470,1.806 128.601,1.806 C128.983,1.806 129.081,2.024 129.157,2.209 C129.223,2.383 129.277,2.568 129.659,3.994 C130.161,3.831 131.077,3.515 131.492,3.406 C131.426,3.232 131.241,2.753 131.077,2.437 C130.914,2.122 130.903,2.045 130.903,1.969 C130.903,1.599 131.285,1.468 131.492,1.468 C131.906,1.468 132.048,1.620 132.670,3.123 C133.008,3.069 133.358,3.025 133.707,3.025 C135.081,3.025 136.271,3.929 136.271,5.617 C136.271,6.107 136.172,7.370 135.278,8.078 C134.710,8.535 133.969,8.688 133.238,8.688 ZM126.542,48.032 L124.099,50.685 C124.050,50.742 124.033,50.775 124.033,50.824 C124.033,50.939 124.148,50.955 124.222,50.955 L126.460,50.955 C126.550,50.955 126.855,50.980 126.855,51.341 C126.855,51.415 126.855,51.727 126.460,51.727 L123.391,51.727 C122.988,51.727 122.766,51.481 122.766,51.095 C122.766,50.906 122.865,50.701 122.980,50.570 L125.423,47.918 C125.448,47.893 125.489,47.852 125.489,47.778 C125.489,47.680 125.382,47.647 125.300,47.647 L123.367,47.647 C122.964,47.647 122.964,47.318 122.964,47.269 C122.964,47.211 122.964,46.875 123.367,46.875 L126.131,46.875 C126.517,46.875 126.756,47.121 126.756,47.499 C126.756,47.778 126.567,48.008 126.542,48.032 ZM118.493,37.015 C117.825,37.015 116.991,36.349 116.991,35.659 C116.991,35.135 117.325,34.683 117.706,34.207 C121.306,29.472 121.974,24.070 122.522,19.121 C122.594,18.431 122.784,17.574 124.096,17.764 C125.169,17.907 125.240,18.597 125.240,19.097 C125.240,19.144 124.763,28.425 120.949,34.564 C119.566,36.825 119.089,37.015 118.493,37.015 ZM122.981,7.925 C122.829,7.925 122.501,7.762 121.934,7.490 C121.465,9.613 119.796,11.050 118.836,11.050 C118.530,11.050 118.246,10.757 118.246,10.441 C118.246,10.147 118.334,10.103 119.174,9.657 C120.352,9.014 120.668,7.860 120.799,7.011 C119.381,6.488 118.421,6.346 118.148,6.303 C117.984,6.913 117.526,8.230 117.264,8.840 C116.795,9.929 116.283,10.408 115.584,10.408 C114.744,10.408 113.675,9.700 113.675,8.241 C113.675,7.980 113.675,5.367 117.297,5.181 C117.439,4.702 117.766,3.482 117.766,3.178 C117.766,2.982 117.668,2.862 117.341,2.862 C117.275,2.862 115.530,2.960 115.191,2.960 C114.919,2.960 114.515,2.960 114.515,2.383 C114.515,1.806 114.962,1.795 115.104,1.795 C115.551,1.784 117.614,1.729 117.875,1.729 C118.541,1.729 119.010,1.980 119.010,2.644 C119.010,2.851 118.966,3.210 118.879,3.613 C118.825,3.875 118.497,4.996 118.443,5.236 C119.065,5.344 119.959,5.508 120.941,5.802 C120.974,5.192 120.974,4.898 120.974,4.539 C120.974,3.646 120.974,3.341 121.585,3.341 C122.174,3.341 122.261,3.657 122.261,4.321 C122.261,4.844 122.185,5.693 122.130,6.238 C123.374,6.738 123.538,6.956 123.538,7.272 C123.538,7.588 123.265,7.925 122.981,7.925 ZM114.733,8.241 C114.733,8.993 115.202,9.265 115.486,9.265 C115.835,9.265 116.075,8.873 116.381,8.110 C116.653,7.413 116.828,6.913 117.003,6.238 C115.061,6.401 114.733,7.620 114.733,8.241 ZM116.259,47.014 C116.300,46.916 116.382,46.702 116.678,46.702 C116.941,46.702 117.196,46.908 117.196,47.129 C117.196,47.195 117.180,47.286 117.155,47.351 L115.181,52.080 C115.000,52.507 114.687,53.000 113.675,53.000 C113.511,53.000 113.116,53.000 113.116,52.573 C113.116,52.212 113.420,52.187 113.741,52.162 C114.070,52.138 114.259,52.031 114.383,51.711 L114.490,51.432 L112.655,47.359 C112.631,47.310 112.606,47.236 112.606,47.162 C112.606,46.899 112.869,46.702 113.141,46.702 C113.371,46.702 113.486,46.867 113.544,46.998 L114.951,50.249 L116.259,47.014 ZM111.249,46.136 C110.928,46.136 110.664,45.873 110.664,45.553 C110.664,45.216 110.936,44.962 111.249,44.962 C111.569,44.954 111.841,45.224 111.841,45.553 C111.841,45.873 111.578,46.136 111.249,46.136 ZM109.409,23.047 L107.454,23.047 L107.454,35.730 C107.454,38.395 106.118,38.395 103.567,38.395 C101.898,38.395 101.064,38.395 101.064,37.110 C101.064,36.134 101.660,35.849 102.256,35.849 C102.566,35.849 103.949,35.897 104.235,35.873 C104.950,35.778 104.974,35.183 104.974,34.874 L104.974,27.092 C103.567,29.662 101.827,31.899 100.206,33.493 C98.775,34.921 98.537,34.921 98.179,34.921 C97.512,34.921 96.939,34.255 96.939,33.612 C96.939,33.113 97.202,32.851 97.631,32.494 C98.847,31.495 101.922,28.829 104.879,23.047 L99.824,23.047 C99.514,23.047 98.584,23.047 98.584,21.952 C98.584,21.096 98.966,20.763 99.824,20.763 L104.974,20.763 L104.974,17.360 C104.974,16.955 105.022,16.123 106.142,16.123 C107.025,16.123 107.454,16.408 107.454,17.360 L107.454,20.763 L109.409,20.763 C109.719,20.763 110.648,20.763 110.648,21.857 C110.648,22.738 110.243,23.047 109.409,23.047 ZM107.418,4.680 C106.447,4.855 104.112,5.377 102.847,5.965 C102.137,6.292 100.839,6.989 100.839,8.176 C100.839,9.091 101.406,9.722 104.036,9.722 C105.258,9.722 106.011,9.613 107.363,9.406 C107.440,9.396 107.527,9.396 107.603,9.396 C108.116,9.396 108.214,9.755 108.214,10.005 C108.214,10.473 107.931,10.572 107.603,10.637 C106.971,10.778 105.509,10.909 104.254,10.909 C102.236,10.909 99.541,10.659 99.541,8.274 C99.541,6.227 101.483,5.367 102.770,4.800 C102.672,4.038 102.279,2.557 102.257,2.503 C102.203,2.317 102.105,1.991 102.105,1.816 C102.105,1.359 102.552,1.283 102.781,1.283 C103.348,1.283 103.403,1.544 103.556,2.306 C103.643,2.753 103.883,3.962 103.927,4.343 C105.018,3.951 107.254,3.374 107.724,3.374 C108.345,3.374 108.356,3.886 108.356,4.005 C108.356,4.517 107.985,4.582 107.418,4.680 ZM96.725,27.925 C97.655,29.067 97.774,29.210 97.774,29.543 C97.774,30.209 97.154,30.733 96.558,30.733 C96.153,30.733 95.914,30.448 95.580,29.972 C95.175,29.377 94.770,28.568 94.508,28.020 L94.508,37.443 C94.508,37.800 94.484,38.657 93.411,38.657 C92.576,38.657 92.171,38.348 92.171,37.443 L92.171,28.306 C91.909,29.067 91.027,31.161 90.550,32.018 C90.144,32.732 89.882,33.065 89.286,33.065 C88.499,33.065 88.023,32.351 88.023,31.732 C88.023,31.328 88.023,31.328 88.976,29.924 C89.644,28.948 91.146,26.640 92.171,23.166 L89.501,23.166 C89.191,23.166 88.333,23.166 88.333,22.024 C88.333,20.882 89.143,20.882 89.501,20.882 L92.171,20.882 L92.171,17.360 C92.171,17.051 92.171,16.123 93.292,16.123 C94.150,16.123 94.508,16.480 94.508,17.360 L94.508,20.882 L96.582,20.882 C96.892,20.882 97.750,20.882 97.750,22.024 C97.750,23.094 97.011,23.166 96.582,23.166 L94.508,23.166 L94.508,23.951 C95.199,25.736 96.176,27.235 96.725,27.925 ZM95.372,3.875 C94.969,3.994 94.652,4.005 92.798,4.125 C93.234,4.996 93.791,5.791 94.260,6.292 C94.718,6.771 94.827,6.913 94.827,7.141 C94.827,7.457 94.543,7.719 94.194,7.719 C94.042,7.719 93.998,7.697 93.463,7.457 C93.300,7.381 92.689,7.152 92.143,7.011 C91.532,6.847 90.932,6.782 90.397,6.782 C88.717,6.782 88.008,7.632 88.008,8.394 C88.008,9.755 90.037,9.798 91.008,9.798 C91.598,9.798 92.569,9.744 93.409,9.581 C94.183,9.428 94.336,9.406 94.478,9.406 C94.893,9.406 95.002,9.755 95.002,9.972 C95.002,10.234 94.893,10.419 94.554,10.528 C93.867,10.757 92.241,10.942 91.128,10.942 C90.048,10.942 88.935,10.855 87.975,10.343 C87.190,9.929 86.797,9.156 86.797,8.339 C86.797,6.956 87.866,5.791 90.223,5.791 C91.390,5.791 92.274,6.063 92.776,6.216 C92.296,5.562 91.892,4.974 91.532,4.191 C90.234,4.245 89.623,4.267 87.648,4.267 C86.852,4.267 86.470,4.267 86.470,3.679 C86.470,3.102 86.917,3.102 87.081,3.102 C87.375,3.102 88.674,3.123 88.935,3.123 C89.917,3.123 90.648,3.102 91.085,3.080 C90.976,2.764 90.768,2.154 90.768,1.860 C90.768,1.403 91.237,1.348 91.423,1.348 C91.772,1.348 91.936,1.544 92.023,1.925 C92.209,2.677 92.230,2.764 92.318,3.025 C92.700,3.004 93.343,2.960 94.118,2.884 C94.478,2.851 95.056,2.786 95.198,2.786 C95.754,2.786 95.754,3.330 95.754,3.384 C95.754,3.668 95.623,3.809 95.372,3.875 ZM88.056,47.474 C87.283,47.474 87.053,47.893 87.012,48.000 C86.880,48.320 86.823,48.476 86.485,48.476 C86.345,48.476 86.008,48.427 86.008,48.082 C86.008,47.778 86.296,46.702 88.073,46.702 C89.364,46.702 90.023,47.228 90.023,48.295 L90.023,50.865 C90.023,50.898 90.031,51.054 90.064,51.218 C90.072,51.267 90.138,51.498 90.138,51.547 C90.138,51.809 89.875,51.900 89.653,51.900 C89.216,51.900 89.142,51.653 89.077,51.194 C88.501,51.867 87.769,51.908 87.431,51.908 C86.370,51.908 85.819,51.259 85.819,50.438 C85.819,49.190 86.971,49.026 87.752,48.911 C88.616,48.788 88.813,48.763 88.929,48.665 C89.044,48.566 89.068,48.353 89.068,48.221 C89.068,47.556 88.410,47.474 88.056,47.474 ZM89.060,49.322 C88.805,49.453 88.731,49.461 88.040,49.576 C87.489,49.667 86.806,49.773 86.806,50.446 C86.806,50.840 87.086,51.185 87.653,51.185 C88.320,51.185 89.060,50.734 89.060,50.052 L89.060,49.322 ZM83.400,48.878 C84.371,49.084 85.185,49.313 85.185,50.323 C85.185,51.300 84.478,51.900 83.120,51.900 C82.199,51.900 81.705,51.645 81.385,51.325 C81.056,50.988 80.940,50.570 80.940,50.389 C80.940,50.167 81.130,49.987 81.417,49.987 C81.755,49.987 81.821,50.167 81.911,50.430 C82.059,50.865 82.339,51.112 83.162,51.112 C83.408,51.112 84.223,51.112 84.223,50.430 C84.223,49.979 84.001,49.929 82.841,49.675 C81.870,49.461 81.064,49.207 81.064,48.213 C81.064,47.368 81.705,46.702 83.022,46.702 C84.017,46.702 84.527,47.006 84.823,47.491 C84.930,47.663 85.029,47.909 85.029,48.106 C85.029,48.402 84.741,48.484 84.552,48.484 C84.198,48.484 84.157,48.344 84.050,48.008 C83.992,47.835 83.861,47.483 83.022,47.483 C82.783,47.483 82.018,47.483 82.018,48.106 C82.018,48.558 82.372,48.657 83.400,48.878 ZM81.809,38.760 C81.809,38.760 81.609,39.431 80.706,39.652 C79.802,39.873 79.259,39.995 79.039,39.807 C78.819,39.619 79.108,39.475 79.344,39.392 C79.581,39.308 80.168,39.073 80.158,38.644 C79.727,38.320 74.627,33.790 74.442,33.436 C74.369,33.161 71.684,30.495 71.116,29.565 C70.360,30.952 66.838,35.259 66.852,35.402 C66.783,35.551 64.015,39.207 63.762,39.177 C63.508,39.147 63.416,39.919 63.024,39.899 C62.632,39.880 61.780,39.702 61.791,39.533 C61.803,39.365 61.803,39.365 61.803,39.365 C61.803,39.365 60.673,39.206 60.224,38.880 C59.774,38.553 58.853,37.949 59.025,37.722 C59.198,37.494 59.613,37.464 60.016,37.603 C60.420,37.741 61.307,37.702 61.307,37.702 C61.307,37.702 60.674,37.485 61.204,37.207 C61.734,36.930 62.898,36.010 62.898,36.010 C62.898,36.010 63.751,35.614 64.074,35.208 L64.079,35.209 C64.752,34.078 67.573,30.471 67.788,29.836 C67.947,29.367 68.509,28.453 68.658,27.836 C68.717,27.582 68.775,27.328 68.822,27.115 C68.654,27.071 68.387,26.995 68.174,26.912 L68.125,26.974 C68.125,26.974 68.033,26.893 67.898,26.770 C67.890,26.762 67.881,26.754 67.874,26.747 C67.839,26.715 67.798,26.677 67.758,26.640 L67.642,26.875 C67.481,27.221 67.107,27.271 67.107,27.271 L66.518,27.073 C66.518,27.073 66.518,27.073 66.304,26.925 C66.304,26.925 66.089,26.826 66.089,26.480 C65.821,26.332 66.089,26.183 66.357,25.936 C66.478,25.825 66.674,25.744 66.854,25.688 C66.825,25.638 66.818,25.603 66.839,25.590 C66.949,25.522 67.913,24.435 68.509,23.755 C68.731,22.673 68.931,21.637 68.962,21.343 C69.030,20.675 69.131,19.442 69.234,19.337 C69.336,19.231 69.697,18.347 69.697,18.347 L69.489,18.499 L69.405,17.839 C69.405,17.839 69.633,17.626 69.693,17.543 C69.754,17.459 69.677,17.282 69.585,17.186 C69.491,17.090 69.099,17.090 68.946,17.078 C68.792,17.065 68.843,16.821 68.856,16.680 C68.786,16.603 68.865,16.458 68.865,16.458 L68.814,16.340 C68.814,16.340 68.956,16.152 68.781,16.141 C68.605,16.129 68.536,16.053 68.597,15.989 C68.658,15.925 68.941,15.549 68.941,15.549 C68.941,15.549 69.018,15.364 68.968,15.266 C68.919,15.168 69.218,14.710 69.218,14.710 C69.218,14.710 69.287,14.405 69.222,14.408 C69.156,14.411 69.018,14.277 69.018,14.277 C69.018,14.277 69.168,14.230 69.291,14.102 C69.414,13.976 69.678,14.023 69.629,13.924 C69.579,13.826 69.798,13.835 70.017,13.844 C69.989,13.745 70.170,13.856 70.540,13.858 C70.911,13.859 71.343,13.776 71.826,14.215 C72.310,14.653 72.145,15.546 71.979,16.038 C71.812,16.530 71.508,16.907 71.508,16.907 C71.508,16.907 71.394,17.194 71.481,17.190 C71.568,17.186 71.695,17.481 71.695,17.481 C71.695,17.481 73.232,19.133 73.381,19.427 C73.529,19.721 73.621,21.608 73.627,21.728 C73.635,21.849 73.879,24.110 73.958,24.327 C74.036,24.544 74.864,26.353 74.864,26.353 L74.274,27.068 C74.274,27.068 74.260,27.189 74.160,27.335 C74.076,27.457 73.665,27.441 73.481,27.435 C73.599,28.372 74.685,29.757 74.797,30.018 C75.340,30.674 75.873,31.207 75.868,31.286 C75.867,31.304 75.871,31.324 75.873,31.344 C75.920,31.384 81.634,36.251 81.923,36.483 C81.973,36.522 81.966,36.621 81.920,36.754 C82.291,36.904 83.159,37.478 83.227,37.881 C83.027,38.176 82.370,38.743 82.370,38.743 L81.809,38.760 ZM82.607,7.719 C82.607,8.611 82.269,10.005 80.567,10.669 C79.836,10.963 79.039,11.050 78.243,11.050 C76.105,11.050 75.199,10.277 75.199,9.232 C75.199,7.958 76.388,7.435 77.457,7.435 C77.752,7.435 78.527,7.479 79.050,7.925 C79.432,8.263 79.585,8.775 79.585,9.276 C79.585,9.570 79.541,9.700 79.465,9.885 C80.720,9.657 81.331,8.840 81.331,7.817 C81.331,6.248 80.098,5.780 78.843,5.780 C77.141,5.780 75.875,6.673 75.046,7.424 C74.359,8.045 74.326,8.078 74.097,8.078 C73.770,8.078 73.453,7.784 73.453,7.435 C73.453,7.185 73.486,7.141 74.424,6.433 C75.548,5.573 78.341,3.482 79.050,2.797 C78.385,2.829 75.679,2.982 75.123,2.982 C74.948,2.982 74.501,2.971 74.501,2.394 C74.501,1.816 74.828,1.806 75.646,1.795 C75.854,1.795 78.188,1.762 78.505,1.751 C79.028,1.729 79.738,1.697 80.054,1.697 C80.381,1.697 80.960,1.718 80.960,2.350 C80.960,2.775 80.796,2.895 80.163,3.330 C78.592,4.430 78.418,4.550 77.817,5.051 C78.177,4.909 78.559,4.746 79.334,4.746 C81.614,4.746 82.607,6.161 82.607,7.719 ZM77.425,8.405 C76.846,8.405 76.290,8.698 76.290,9.221 C76.290,9.809 77.152,10.060 77.916,10.060 C78.090,10.060 78.298,10.049 78.428,10.016 C78.516,9.831 78.581,9.689 78.581,9.406 C78.581,8.546 77.927,8.405 77.425,8.405 ZM69.536,10.343 C68.969,10.343 68.947,9.951 68.914,9.515 C68.838,8.415 68.718,6.924 67.769,6.357 C67.485,6.194 67.245,6.042 67.299,5.704 C67.343,5.464 67.507,5.225 67.867,5.225 C67.910,5.225 68.281,5.225 68.794,5.584 C69.831,6.314 70.202,8.197 70.202,9.624 C70.202,9.864 70.202,10.343 69.536,10.343 ZM67.670,3.428 C67.212,3.428 64.801,3.134 63.372,2.840 C62.226,2.601 62.095,2.492 62.095,2.078 C62.095,1.958 62.150,1.490 62.619,1.490 C62.750,1.490 63.830,1.762 64.048,1.806 C65.445,2.078 66.230,2.154 67.649,2.263 C67.867,2.274 68.314,2.306 68.314,2.829 C68.314,3.428 67.910,3.428 67.670,3.428 ZM67.190,8.829 C67.190,9.276 66.983,11.072 64.943,11.072 C64.332,11.072 63.590,10.898 62.979,10.506 C62.728,10.354 62.641,10.201 62.641,9.994 C62.641,9.809 62.750,9.428 63.121,9.428 C63.252,9.428 63.459,9.494 63.546,9.526 C64.256,9.831 64.354,9.874 64.692,9.874 C65.368,9.874 65.925,9.581 65.925,8.709 C65.925,7.991 65.434,7.479 65.019,7.043 C64.648,6.640 63.972,5.933 63.972,4.800 C63.972,3.831 64.354,3.831 64.703,3.831 C64.725,3.831 65.237,3.853 65.237,4.343 C65.237,4.441 65.183,4.887 65.183,4.985 C65.183,5.443 65.445,5.845 65.750,6.172 C66.547,7.032 67.190,7.729 67.190,8.829 ZM62.543,5.486 C62.804,5.530 63.012,5.671 63.012,5.955 C63.012,6.423 62.357,8.307 62.150,8.916 C61.615,10.441 61.375,10.441 61.135,10.441 C60.841,10.441 60.448,10.212 60.448,9.874 C60.448,9.646 60.928,8.742 61.004,8.557 C61.332,7.751 61.364,7.588 61.812,5.965 C61.899,5.639 62.084,5.399 62.543,5.486 ZM61.335,45.142 L64.288,45.142 C64.741,45.142 64.741,45.520 64.741,45.578 C64.741,45.701 64.708,46.021 64.288,46.021 L61.623,46.021 C61.351,46.021 61.228,46.161 61.228,46.407 L61.228,48.041 L63.885,48.041 C64.017,48.041 64.338,48.041 64.338,48.460 C64.338,48.755 64.165,48.887 63.885,48.887 L61.228,48.887 L61.228,51.423 C61.228,51.900 60.808,51.900 60.734,51.900 C60.521,51.900 60.216,51.826 60.216,51.423 L60.216,46.251 C60.216,45.463 60.529,45.142 61.335,45.142 ZM66.304,46.702 C66.600,46.702 66.798,46.817 66.798,47.162 L66.798,49.995 C66.798,50.397 66.929,51.070 67.810,51.070 C68.813,51.070 69.027,50.184 69.027,49.863 L69.027,47.162 C69.027,46.776 69.290,46.702 69.504,46.702 C69.801,46.702 69.990,46.834 69.990,47.162 L69.990,51.448 C69.990,51.892 69.652,51.900 69.513,51.900 C69.233,51.900 69.027,51.785 69.027,51.448 L69.027,51.144 C68.780,51.440 68.344,51.900 67.522,51.900 C66.485,51.900 65.835,51.292 65.835,50.134 L65.835,47.162 C65.835,46.760 66.132,46.702 66.304,46.702 ZM71.948,46.702 C72.236,46.702 72.433,46.826 72.433,47.162 L72.433,47.597 C73.059,46.817 73.725,46.702 74.054,46.702 C74.367,46.702 74.556,46.932 74.556,47.195 C74.556,47.540 74.260,47.688 74.054,47.704 C72.433,47.827 72.433,48.878 72.433,48.952 L72.433,51.448 C72.433,51.826 72.170,51.900 71.965,51.900 C71.660,51.900 71.471,51.768 71.471,51.448 L71.471,47.162 C71.471,46.702 71.849,46.702 71.948,46.702 ZM76.201,46.702 C76.498,46.702 76.695,46.817 76.695,47.162 L76.695,49.995 C76.695,50.397 76.827,51.070 77.707,51.070 C78.711,51.070 78.924,50.184 78.924,49.863 L78.924,47.162 C78.924,46.776 79.188,46.702 79.402,46.702 C79.698,46.702 79.887,46.834 79.887,47.162 L79.887,51.448 C79.887,51.892 79.550,51.900 79.410,51.900 C79.130,51.900 78.924,51.785 78.924,51.448 L78.924,51.144 C78.678,51.440 78.242,51.900 77.419,51.900 C76.382,51.900 75.732,51.292 75.732,50.134 L75.732,47.162 C75.732,46.760 76.029,46.702 76.201,46.702 ZM91.331,46.875 L91.866,46.875 L91.866,45.857 C91.866,45.479 92.129,45.397 92.343,45.397 C92.622,45.397 92.828,45.512 92.828,45.857 L92.828,46.875 L93.552,46.875 C93.684,46.875 93.955,46.924 93.955,47.261 C93.955,47.334 93.955,47.647 93.552,47.647 L92.828,47.647 L92.828,50.635 C92.828,51.013 93.042,51.103 93.371,51.103 C93.675,51.103 93.964,51.103 93.964,51.464 C93.964,51.834 93.536,51.900 93.215,51.900 C92.359,51.900 91.866,51.637 91.866,50.791 L91.866,47.647 L91.331,47.647 C91.232,47.647 90.928,47.622 90.928,47.269 C90.928,47.006 91.076,46.875 91.331,46.875 ZM96.859,46.702 C98.455,46.702 99.212,47.918 99.212,49.305 C99.212,50.726 98.422,51.900 96.859,51.900 C95.305,51.900 94.507,50.726 94.507,49.305 C94.507,47.918 95.272,46.702 96.859,46.702 ZM96.859,51.070 C97.871,51.070 98.225,50.069 98.225,49.305 C98.225,48.624 97.921,47.532 96.859,47.532 C95.765,47.532 95.494,48.673 95.494,49.305 C95.494,50.036 95.831,51.070 96.859,51.070 ZM103.836,44.962 C103.992,44.962 104.535,44.962 104.683,45.495 L106.065,50.602 C106.082,50.652 106.098,50.709 106.148,50.709 C106.197,50.709 106.222,50.652 106.238,50.602 L107.612,45.495 C107.711,45.126 108.056,44.962 108.426,44.962 C108.904,44.962 109.274,45.109 109.274,45.660 L109.274,51.423 C109.274,51.900 108.854,51.900 108.772,51.900 C108.451,51.900 108.262,51.744 108.262,51.423 L108.262,46.308 C108.262,46.284 108.262,46.251 108.229,46.251 C108.204,46.251 108.196,46.267 108.188,46.308 L106.839,51.399 C106.748,51.744 106.436,51.900 106.131,51.900 C105.703,51.900 105.506,51.563 105.465,51.399 L104.116,46.308 C104.107,46.276 104.099,46.251 104.066,46.251 C104.033,46.251 104.033,46.284 104.033,46.308 L104.033,51.423 C104.033,51.900 103.614,51.900 103.540,51.900 C103.219,51.900 103.030,51.744 103.030,51.423 L103.030,45.660 C103.030,45.200 103.301,44.962 103.836,44.962 ZM111.240,46.702 C111.528,46.702 111.734,46.826 111.734,47.162 L111.734,51.448 C111.734,51.826 111.479,51.900 111.257,51.900 C110.952,51.900 110.771,51.768 110.771,51.448 L110.771,47.162 C110.771,46.702 111.133,46.702 111.240,46.702 ZM119.590,48.911 C120.454,48.788 120.652,48.763 120.767,48.665 C120.882,48.566 120.907,48.353 120.907,48.221 C120.907,47.556 120.249,47.474 119.895,47.474 C119.122,47.474 118.891,47.893 118.850,48.000 C118.719,48.320 118.661,48.476 118.324,48.476 C118.184,48.476 117.846,48.427 117.846,48.082 C117.846,47.778 118.135,46.702 119.911,46.702 C121.203,46.702 121.861,47.228 121.861,48.295 L121.861,50.865 C121.861,50.898 121.869,51.054 121.902,51.218 C121.910,51.267 121.976,51.498 121.976,51.547 C121.976,51.809 121.713,51.900 121.491,51.900 C121.055,51.900 120.981,51.653 120.915,51.194 C120.339,51.867 119.607,51.908 119.270,51.908 C118.208,51.908 117.657,51.259 117.657,50.438 C117.657,49.190 118.809,49.026 119.590,48.911 ZM119.492,51.185 C120.158,51.185 120.898,50.734 120.898,50.052 L120.898,49.322 C120.643,49.453 120.569,49.461 119.879,49.576 C119.327,49.667 118.644,49.773 118.644,50.446 C118.644,50.840 118.924,51.185 119.492,51.185 ZM129.348,48.911 C130.212,48.788 130.409,48.763 130.524,48.665 C130.639,48.566 130.664,48.353 130.664,48.221 C130.664,47.556 130.006,47.474 129.652,47.474 C128.879,47.474 128.648,47.893 128.607,48.000 C128.476,48.320 128.418,48.476 128.081,48.476 C127.941,48.476 127.604,48.427 127.604,48.082 C127.604,47.778 127.892,46.702 129.669,46.702 C130.960,46.702 131.618,47.228 131.618,48.295 L131.618,50.865 C131.618,50.898 131.627,51.054 131.659,51.218 C131.668,51.267 131.733,51.498 131.733,51.547 C131.733,51.809 131.470,51.900 131.248,51.900 C130.812,51.900 130.738,51.653 130.672,51.194 C130.096,51.867 129.364,51.908 129.027,51.908 C127.966,51.908 127.415,51.259 127.415,50.438 C127.415,49.190 128.566,49.026 129.348,48.911 ZM129.249,51.185 C129.915,51.185 130.656,50.734 130.656,50.052 L130.656,49.322 C130.401,49.453 130.327,49.461 129.636,49.576 C129.085,49.667 128.402,49.773 128.402,50.446 C128.402,50.840 128.681,51.185 129.249,51.185 ZM133.503,44.962 C133.782,44.962 133.988,45.085 133.988,45.422 L133.988,48.977 L136.250,46.850 C136.406,46.702 136.513,46.702 136.563,46.702 C136.884,46.702 137.081,47.056 137.081,47.220 C137.081,47.334 137.023,47.450 136.941,47.523 L135.567,48.813 L137.155,51.161 C137.204,51.226 137.246,51.317 137.246,51.415 C137.246,51.621 137.032,51.900 136.702,51.900 C136.596,51.900 136.480,51.867 136.341,51.661 L134.852,49.486 L133.988,50.299 L133.988,51.448 C133.988,51.826 133.725,51.900 133.519,51.900 C133.215,51.900 133.025,51.768 133.025,51.448 L133.025,45.422 C133.025,44.978 133.371,44.962 133.503,44.962 ZM134.634,19.597 C134.491,19.240 134.300,18.645 134.205,18.359 C134.085,18.026 133.895,17.574 133.799,17.384 C133.752,17.265 133.680,17.051 133.680,16.860 C133.680,16.384 134.205,16.218 134.491,16.218 C134.920,16.218 135.087,16.503 135.468,17.336 C135.730,17.955 136.088,18.978 136.088,19.287 C136.088,19.763 135.683,20.001 135.277,20.001 C134.944,20.001 134.729,19.811 134.634,19.597 ZM138.234,35.659 C138.234,36.373 137.399,37.015 136.732,37.015 C136.088,37.015 135.611,36.658 134.252,34.493 C130.485,28.448 130.008,19.168 130.008,19.097 C130.008,18.669 130.032,17.907 131.153,17.764 C132.488,17.574 132.655,18.478 132.726,19.121 C133.251,24.094 133.990,29.543 137.542,34.207 C137.948,34.731 138.234,35.135 138.234,35.659 ZM138.677,46.702 C138.965,46.702 139.171,46.826 139.171,47.162 L139.171,51.448 C139.171,51.826 138.916,51.900 138.694,51.900 C138.389,51.900 138.208,51.768 138.208,51.448 L138.208,47.162 C138.208,46.702 138.570,46.702 138.677,46.702 ZM143.424,49.248 C143.942,49.248 143.942,49.625 143.942,49.790 C143.942,50.340 143.967,51.013 144.880,51.013 C145.769,51.013 145.900,50.373 145.900,49.601 L145.900,45.446 C145.900,44.962 146.320,44.962 146.394,44.962 C146.649,44.962 146.912,45.069 146.912,45.446 L146.912,49.625 C146.912,50.865 146.534,51.900 144.954,51.900 C143.177,51.900 142.931,50.865 142.931,49.716 C142.931,49.248 143.367,49.248 143.424,49.248 ZM148.887,44.962 C149.208,44.954 149.479,45.224 149.479,45.553 C149.479,45.873 149.216,46.136 148.887,46.136 C148.566,46.136 148.303,45.873 148.303,45.553 C148.303,45.216 148.574,44.962 148.887,44.962 ZM148.879,46.702 C149.166,46.702 149.372,46.826 149.372,47.162 L149.372,51.448 C149.372,51.826 149.117,51.900 148.895,51.900 C148.591,51.900 148.410,51.768 148.410,51.448 L148.410,47.162 C148.410,46.702 148.772,46.702 148.879,46.702 ZM151.322,46.702 C151.602,46.702 151.807,46.817 151.807,47.162 L151.807,47.466 C152.054,47.171 152.490,46.702 153.313,46.702 C154.349,46.702 154.999,47.310 154.999,48.468 L154.999,51.448 C154.999,51.842 154.703,51.900 154.530,51.900 C154.242,51.900 154.037,51.785 154.037,51.448 L154.037,48.615 C154.037,48.213 153.905,47.532 153.025,47.532 C152.021,47.532 151.807,48.418 151.807,48.738 L151.807,51.448 C151.807,51.826 151.544,51.900 151.338,51.900 C151.034,51.900 150.845,51.768 150.845,51.448 L150.845,47.162 C150.845,46.719 151.190,46.702 151.322,46.702 ZM158.636,47.918 C158.661,47.893 158.702,47.852 158.702,47.778 C158.702,47.680 158.595,47.647 158.512,47.647 L156.579,47.647 C156.176,47.647 156.176,47.318 156.176,47.269 C156.176,47.211 156.176,46.875 156.579,46.875 L159.343,46.875 C159.730,46.875 159.968,47.121 159.968,47.499 C159.968,47.778 159.779,48.008 159.755,48.032 L157.311,50.685 C157.262,50.742 157.245,50.775 157.245,50.824 C157.245,50.939 157.361,50.955 157.435,50.955 L159.672,50.955 C159.763,50.955 160.067,50.980 160.067,51.341 C160.067,51.415 160.067,51.727 159.672,51.727 L156.604,51.727 C156.201,51.727 155.979,51.481 155.979,51.095 C155.979,50.906 156.077,50.701 156.192,50.570 L158.636,47.918 ZM162.560,48.911 C163.424,48.788 163.621,48.763 163.737,48.665 C163.852,48.566 163.876,48.353 163.876,48.221 C163.876,47.556 163.218,47.474 162.865,47.474 C162.091,47.474 161.861,47.893 161.820,48.000 C161.688,48.320 161.631,48.476 161.293,48.476 C161.153,48.476 160.816,48.427 160.816,48.082 C160.816,47.778 161.104,46.702 162.881,46.702 C164.173,46.702 164.831,47.228 164.831,48.295 L164.831,50.865 C164.831,50.898 164.839,51.054 164.872,51.218 C164.880,51.267 164.946,51.498 164.946,51.547 C164.946,51.809 164.683,51.900 164.461,51.900 C164.025,51.900 163.950,51.653 163.885,51.194 C163.309,51.867 162.577,51.908 162.239,51.908 C161.178,51.908 160.627,51.259 160.627,50.438 C160.627,49.190 161.779,49.026 162.560,48.911 ZM162.461,51.185 C163.128,51.185 163.868,50.734 163.868,50.052 L163.868,49.322 C163.613,49.453 163.539,49.461 162.848,49.576 C162.297,49.667 161.614,49.773 161.614,50.446 C161.614,50.840 161.894,51.185 162.461,51.185 ZM166.707,46.702 C166.995,46.702 167.200,46.826 167.200,47.162 L167.200,51.448 C167.200,51.826 166.945,51.900 166.723,51.900 C166.419,51.900 166.238,51.768 166.238,51.448 L166.238,47.162 C166.238,46.702 166.600,46.702 166.707,46.702 ZM179.467,48.911 C180.330,48.788 180.528,48.763 180.643,48.665 C180.758,48.566 180.783,48.353 180.783,48.221 C180.783,47.556 180.125,47.474 179.771,47.474 C178.998,47.474 178.767,47.893 178.726,48.000 C178.595,48.320 178.537,48.476 178.200,48.476 C178.060,48.476 177.723,48.427 177.723,48.082 C177.723,47.778 178.010,46.702 179.788,46.702 C181.079,46.702 181.737,47.228 181.737,48.295 L181.737,50.865 C181.737,50.898 181.745,51.054 181.778,51.218 C181.786,51.267 181.852,51.498 181.852,51.547 C181.852,51.809 181.589,51.900 181.367,51.900 C180.931,51.900 180.857,51.653 180.791,51.194 C180.215,51.867 179.483,51.908 179.146,51.908 C178.084,51.908 177.533,51.259 177.533,50.438 C177.533,49.190 178.685,49.026 179.467,48.911 ZM179.368,51.185 C180.034,51.185 180.775,50.734 180.775,50.052 L180.775,49.322 C180.520,49.453 180.445,49.461 179.755,49.576 C179.203,49.667 178.521,49.773 178.521,50.446 C178.521,50.840 178.800,51.185 179.368,51.185 ZM183.621,46.702 C183.901,46.702 184.107,46.817 184.107,47.162 L184.107,47.466 C184.353,47.171 184.790,46.702 185.612,46.702 C186.649,46.702 187.298,47.310 187.298,48.468 L187.298,51.448 C187.298,51.842 187.002,51.900 186.830,51.900 C186.542,51.900 186.336,51.785 186.336,51.448 L186.336,48.615 C186.336,48.213 186.204,47.532 185.324,47.532 C184.321,47.532 184.107,48.418 184.107,48.738 L184.107,51.448 C184.107,51.826 183.843,51.900 183.638,51.900 C183.333,51.900 183.144,51.768 183.144,51.448 L183.144,47.162 C183.144,46.719 183.490,46.702 183.621,46.702 Z"/>
<path fill-rule="evenodd"  fill="rgb(255, 125, 38)"
 d="M25.637,52.000 C11.612,51.808 0.192,40.388 -0.001,26.363 C-0.201,11.738 11.738,-0.202 26.363,-0.001 C40.388,0.191 51.808,11.612 52.001,25.637 C52.201,40.261 40.262,52.201 25.637,52.000 ZM37.836,41.680 L38.735,41.680 C39.002,42.323 39.511,42.759 40.096,42.759 C40.958,42.759 41.657,41.814 41.657,40.650 C41.657,39.485 40.958,38.540 40.096,38.540 C39.511,38.540 39.002,38.976 38.735,39.619 L37.836,39.619 L37.836,41.680 ZM22.005,42.332 L24.725,42.332 C24.814,42.901 25.305,43.336 25.900,43.336 C26.494,43.336 26.985,42.901 27.074,42.332 L31.373,42.332 C31.462,42.901 31.953,43.336 32.547,43.336 C33.142,43.336 33.633,42.901 33.722,42.332 L35.474,42.332 L35.474,40.124 L34.522,39.549 L33.391,36.155 L26.396,36.155 L24.833,39.281 L22.005,39.690 L22.005,42.332 ZM26.037,2.444 C13.031,2.424 2.444,12.999 2.444,26.000 L6.294,26.000 C6.660,26.000 7.001,26.182 7.204,26.485 L8.412,28.287 C8.810,28.880 9.661,28.940 10.138,28.408 L15.130,22.840 C15.547,22.375 16.268,22.352 16.713,22.790 L22.699,28.678 C23.223,29.194 24.097,29.056 24.438,28.404 L29.371,18.967 C29.560,18.606 29.934,18.379 30.341,18.379 L38.443,18.379 C38.838,18.379 39.201,18.591 39.396,18.934 L47.196,32.677 L47.909,32.591 C48.357,32.536 48.728,32.213 48.839,31.775 C49.332,29.828 49.582,27.785 49.554,25.681 C49.383,12.856 38.863,2.464 26.037,2.444 ZM36.492,16.722 L23.179,16.722 C22.215,16.722 21.434,15.940 21.434,14.977 C21.434,14.013 22.215,13.232 23.179,13.232 L23.505,13.232 C23.663,12.944 23.763,12.654 23.753,12.390 C23.719,11.552 23.223,11.525 22.578,11.053 L13.583,11.053 C12.620,11.053 11.838,10.272 11.838,9.309 C11.838,8.345 12.620,7.564 13.583,7.564 L26.896,7.564 C27.860,7.564 28.641,8.345 28.641,9.309 C28.641,10.272 27.860,11.053 26.896,11.053 L26.421,11.053 C26.108,11.348 25.826,11.765 25.846,12.300 C25.857,12.600 26.051,12.921 26.333,13.232 L36.492,13.232 C37.456,13.232 38.237,14.013 38.237,14.977 C38.237,15.940 37.456,16.722 36.492,16.722 Z"/>
</svg>
